<?xml version="1.0" standalone="no"?>
<!DOCTYPE svg PUBLIC "-//W3C//DTD SVG 20010904//EN"
 "http://www.w3.org/TR/2001/REC-SVG-20010904/DTD/svg10.dtd">
<svg version="1.0" xmlns="http://www.w3.org/2000/svg"
 width="192.000000pt" height="192.000000pt" viewBox="0 0 192.000000 192.000000"
 preserveAspectRatio="xMidYMid meet">

<g transform="translate(0.000000,192.000000) scale(0.100000,-0.100000)"
fill="#000000" stroke="none">
<circle xmlns="http://www.w3.org/2000/svg" fill="black" cy="1400" cx="930" r="120"/>
<path d="M800 1190 c-12 -7 -12 -12 0 -35 12 -23 10 -43 -26 -193 -51 -217
-53 -307 -10 -367 78 -109 279 -202 389 -181 20 4 37 11 37 15 0 5 -19 21 -41
37 -99 68 -146 174 -136 304 7 90 46 229 87 310 l30 59 -43 12 c-70 19 -220
49 -247 49 -14 0 -32 -4 -40 -10z"/>
</g>
</svg>
